<?xml version="1.0" standalone="no"?><!DOCTYPE svg PUBLIC "-//W3C//DTD SVG 1.1//EN" "http://www.w3.org/Graphics/SVG/1.1/DTD/svg11.dtd"><svg t="1593669819500" class="icon" viewBox="0 0 1024 1024" version="1.1" xmlns="http://www.w3.org/2000/svg" p-id="3532" xmlns:xlink="http://www.w3.org/1999/xlink" width="500" height="500"><defs><style type="text/css"></style></defs><path d="M947.432727 127.627636a32.116364 32.116364 0 0 0-24.669091-8.005818c-2.327273 0.279273-248.133818 23.877818-388.794181-110.778182a31.930182 31.930182 0 0 0-44.264728 0.139637C351.278545 143.453091 103.517091 119.808 101.050182 119.621818a31.837091 31.837091 0 0 0-35.095273 31.604364v238.964363c0 516.933818 434.176 627.293091 438.597818 628.270546a30.813091 30.813091 0 0 0 14.848 0.093091c4.421818-1.024 438.597818-111.429818 438.597818-628.317091V151.272727a31.744 31.744 0 0 0-10.565818-23.645091zM862.952727 400.430545c0 399.592727-299.938909 503.342545-350.952727 518.097455-51.153455-14.801455-351.045818-118.644364-351.045818-518.097455V212.014545c69.259636 2.001455 234.170182-4.887273 351.092363-101.515636 117.992727 96.488727 282.018909 103.377455 350.859637 101.515636v188.416z" p-id="3533"></path><path d="M502.737455 572.695273c-90.018909 0-163.188364-73.216-163.188364-163.141818s73.216-163.141818 163.188364-163.141819c89.972364 0 163.141818 73.216 163.141818 163.141819s-73.216 163.141818-163.141818 163.141818z m0-239.569455c-42.170182 0-76.474182 34.257455-76.474182 76.381091s34.257455 76.381091 76.474182 76.381091c42.077091 0 76.334545-34.257455 76.334545-76.381091a76.520727 76.520727 0 0 0-76.334545-76.381091z" p-id="3534"></path><path d="M557.568 745.704727a41.053091 41.053091 0 0 1-40.96 41.006546 41.053091 41.053091 0 0 1-40.96-41.006546v-197.12a40.96 40.96 0 1 1 81.92 0v197.12z" p-id="3535"></path><path d="M664.296727 647.168a38.493091 38.493091 0 0 1-38.586182 38.446545h-75.170909a38.539636 38.539636 0 0 1 0-76.986181h75.170909c21.271273 0 38.586182 17.221818 38.586182 38.539636z" p-id="3536"></path></svg>