<?xml version="1.0" standalone="no"?><!DOCTYPE svg PUBLIC "-//W3C//DTD SVG 1.1//EN" "http://www.w3.org/Graphics/SVG/1.1/DTD/svg11.dtd"><svg t="1589945310459" class="icon" viewBox="0 0 1024 1024" version="1.1" xmlns="http://www.w3.org/2000/svg" p-id="6402" xmlns:xlink="http://www.w3.org/1999/xlink" width="500" height="500"><defs><style type="text/css"></style></defs><path d="M911.183259 547.501843c1.109326-11.690589 1.877321-23.551843 1.877321-35.49843 0-11.946587-0.767995-23.807841-1.877321-35.49843l93.268711-71.252858a49.919667 49.919667 0 0 0 12.458584-65.108899l-99.498003-168.105546a53.588976 53.588976 0 0 0-65.194232-22.015853l-109.311272 42.837047a395.43203 395.43203 0 0 0-62.719582-35.49843L663.632909 43.270538A52.564983 52.564983 0 0 0 611.49459 0.006827H412.413251a52.138319 52.138319 0 0 0-52.138319 43.690375l-16.554557 113.663242c-21.674522 9.813268-42.666382 21.674522-62.719582 35.49843L171.518857 149.851161a54.783635 54.783635 0 0 0-64.852901 22.186519L7.082619 340.228558a50.005 50.005 0 0 0 12.799915 65.450231l92.927381 70.826194A354.813635 354.813635 0 0 0 110.847261 512.003413c0 11.946587 0.767995 23.893174 1.962654 35.49843l-93.439377 71.252859a50.005 50.005 0 0 0-12.287919 65.023566L106.665956 851.969147a53.759642 53.759642 0 0 0 65.108899 22.015853l109.311271-42.92238c20.138532 13.909241 41.130392 25.855828 62.719582 35.49843l16.554556 114.260571a52.052986 52.052986 0 0 0 52.052987 43.178379h198.996006a52.906314 52.906314 0 0 0 52.308985-43.690375l16.469223-113.663243c21.674522-9.813268 42.666382-21.674522 62.719582-35.583762l109.56727 43.093046a53.930307 53.930307 0 0 0 64.938234-22.186519l99.327337-168.020213a50.175665 50.175665 0 0 0-12.799914-65.706229l-92.756715-70.740862z m-62.378251 253.438311l-115.540563-45.0557a26.623823 26.623823 0 0 0-25.770495 3.413311c-22.869181 16.895887-47.189019 30.634462-72.53285 40.703728-8.533276 3.413311-14.50657 10.922594-15.786561 19.626536l-17.066553 116.479224-180.137466 2.559983-17.407884-119.039207a25.258498 25.258498 0 0 0-15.786561-19.626536 322.301851 322.301851 0 0 1-72.53285-40.789061 27.050486 27.050486 0 0 0-25.599829-3.327978l-111.529923 46.079693L85.332764 649.55983l97.962014-74.154173a24.575836 24.575836 0 0 0 9.727935-22.783848A292.691382 292.691382 0 0 1 189.950734 512.003413c0-13.823908 1.194659-27.306485 2.986646-40.618396a24.319838 24.319838 0 0 0-9.642602-22.783848L86.186092 377.604309l88.746075-154.537636 115.45523 44.970367c8.533276 3.413311 18.431877 2.133319 25.770495-3.413311 22.869181-16.895887 47.359684-30.719795 72.618183-40.789061 8.533276-3.413311 14.50657-10.837261 15.786561-19.626536l14.50657-116.308558L601.766655 85.339591l17.407884 119.039206c1.279991 8.703942 7.253285 16.127892 15.786561 19.541204 25.173166 10.069266 49.578336 23.807841 72.53285 40.789061a27.050486 27.050486 0 0 0 25.770495 3.413311l111.44459-46.079693L938.660409 374.446997l-98.047346 74.239505a24.490503 24.490503 0 0 0-9.727936 22.783848c1.706655 13.311911 3.07198 26.879821 3.07198 40.618396 0 13.823908-1.279991 27.306485-3.07198 40.703729a24.490503 24.490503 0 0 0 9.727936 22.698515l96.93802 70.911527-88.746075 154.622969z" p-id="6403"></path><path d="M511.996587 341.337884c-94.122039 0-170.665529 76.54349-170.665529 170.665529 0 94.036706 76.54349 170.665529 170.665529 170.665529s170.665529-76.54349 170.665529-170.665529-76.54349-170.665529-170.665529-170.665529z m0 255.998294a85.418097 85.418097 0 0 1 0-170.665529 85.418097 85.418097 0 0 1 0 170.665529z" p-id="6404"></path></svg>