<?xml version="1.0" standalone="no"?><!DOCTYPE svg PUBLIC "-//W3C//DTD SVG 1.1//EN" "http://www.w3.org/Graphics/SVG/1.1/DTD/svg11.dtd"><svg t="1589945277187" class="icon" viewBox="0 0 1024 1024" version="1.1" xmlns="http://www.w3.org/2000/svg" p-id="5986" xmlns:xlink="http://www.w3.org/1999/xlink" width="500" height="500"><defs><style type="text/css"></style></defs><path d="M1010.67776 346.82368a10.86976 10.86976 0 0 0-0.29696-1.49504 32.33792 32.33792 0 0 0-1.86368-6.12352l-85.8112-212.736c-14.85824-44.11904-57.53856-71.168-107.4688-71.27552H212.93056c-50.59072 0-89.9072 26.79808-104.14592 69.16096L16.53248 341.43232a44.96384 44.96384 0 0 0-1.31584 5.10464 201.17504 201.17504 0 0 0-10.06592 62.63296c0.0768 74.23488 40.96 142.00832 106.68032 176.90624 0 0 0 0.03584 0.03584 0.03584s0.03584 0 0.03584 0.04096c0 0 0.03584 0 0.03584 0.0512 27.05408 14.3616 58.86464 21.65248 94.70464 21.65248 60.07808-0.1792 115.72224-26.47552 153.64096-71.45984 37.74464 44.6208 92.9536 70.72256 152.9088 71.0912 59.48928-0.48128 114.56-26.68032 152.10496-71.2704 37.91872 44.98944 93.63968 71.15776 153.99936 71.15776 36.5312-0.1792 68.97152-7.83872 96.28672-22.73792 64.72704-35.23072 104.87296-102.73792 104.84736-176.21504a195.31264 195.31264 0 0 0-9.7536-61.59872z m-144.07168 148.20352c-12.27264 6.69184-28.27264 10.14272-47.55456 10.2656-33.75616 0-64.78848-17.03424-83.1488-45.65504-2.28864-4.82304-6.50752-12.93824-13.9008-21.0176-13.87008-15.50848-34.05824-24.18688-56.59648-24.18688-22.75328 0-44.16 9.42592-57.38496 25.23648-6.73792 7.6544-10.66496 15.14496-12.96896 19.85024-18.23232 28.50304-48.80896 45.62944-82.11968 45.88032-33.34656-0.19968-64.2304-17.39776-82.5088-46.07488-2.28864-4.608-6.07744-11.79648-12.15488-18.66752-13.65504-16-34.93376-25.17504-58.46528-25.17504-22.53312 0-43.45344 8.75008-56.12544 23.43424-6.9632 7.68512-11.1616 15.31392-14.05952 21.46816-18.42176 28.34944-49.36192 45.29152-83.10272 45.40928-18.78528-0.00512-34.42688-3.25632-46.4896-9.67168l-2.5088-1.33632c-30.91968-17.49504-50.0224-50.02752-50.04288-85.57568 0-10.82368 1.83296-21.69856 5.45792-32.29184 0.36352-1.09056 0.70656-2.19648 1.00864-3.32288l90.3936-212.8384s0.6656-1.95584 0.80384-2.29376c0.71168-0.32256 2.94912-1.11104 7.71584-1.11104h601.5744c10.97728 0.73728 11.58144 2.51392 12.032 3.82464l0.26112 0.74752 84.55168 209.67936c0.32768 1.34656 0.70144 2.60608 1.02912 3.72736l0.34304 1.08032c3.6352 10.59328 5.48352 21.38624 5.48352 32.09216 0.05632 36.03968-19.6864 69.1712-51.52256 86.52288zM162.11968 988.72832c-63.7696 0-115.65056-51.61984-115.65056-115.09248l-0.25088-195.33824c-0.06144-32.14848 26.12224-58.36288 58.34752-58.42944 32.29696 0 58.52672 26.12224 58.58304 58.20928l0.25088 194.01728 686.19776-0.43008-0.0768-197.5808c0-32.17408 26.22976-58.33728 58.46016-58.33728 32.24576 0 58.48576 26.14784 58.48576 58.32704l0.07168 198.87104c0 63.46752-51.80416 115.22048-115.49184 115.3536l-688.92672 0.43008z" p-id="5987"></path></svg>